<svg xmlns="http://www.w3.org/2000/svg" id="breathSvg" viewBox="0 0 760 500" role="img" aria-labelledby="breathTitle breathDesc"><title id="breathTitle">Gerak paru, tulang rusuk, dan diafragma pada napas tenang</title><desc id="breathDesc">Diagram skematis untuk pembelajaran IPA kelas VIII. Label dan panah menunjukkan bagian serta arah proses.</desc><defs><marker id="breathArrow" markerWidth="8" markerHeight="8" refX="7" refY="4" orient="auto"><path d="M0 0 L8 4 L0 8Z" fill="#176f84"/></marker><marker id="breathOrange" markerWidth="8" markerHeight="8" refX="7" refY="4" orient="auto"><path d="M0 0 L8 4 L0 8Z" fill="#aa5409"/></marker></defs><rect width="760" height="500" rx="18" fill="#fff"/><g font-family="system-ui, sans-serif" font-size="19" fill="#25354b">
<path id="breathChest" d="M290 103 Q190 122 186 235 L195 358 Q380 420 565 358 L574 235 Q570 122 470 103" fill="#f2f5fa" stroke="#8698b0" stroke-width="4"/>
<g id="breathRibs" fill="none" stroke="#b6c4d5" stroke-width="6" stroke-linecap="round"><path d="M288 145 Q214 154 207 189 M471 145 Q545 154 552 189"/><path d="M277 191 Q211 200 208 228 M483 191 Q549 200 551 228"/><path d="M273 236 Q211 244 213 273 M487 236 Q549 244 547 273"/><path d="M272 280 Q215 289 219 319 M488 280 Q545 289 541 319"/></g>
<g id="breathLungs"><path d="M354 139 Q313 106 278 167 Q244 211 246 274 Q248 299 356 303Z" fill="#f4ccd7" stroke="#b05875" stroke-width="3"/><path d="M405 139 Q446 106 481 167 Q515 211 513 274 Q511 299 404 303Z" fill="#f4ccd7" stroke="#b05875" stroke-width="3"/></g>
<path d="M380 58 V161 M380 161 L321 207 M380 161 L441 207" fill="none" stroke="#6695a7" stroke-width="23" stroke-linejoin="round"/><path d="M380 58 V161 M380 161 L321 207 M380 161 L441 207" fill="none" stroke="#d9edf3" stroke-width="16" stroke-linejoin="round"/>
<g id="breathFlow"></g><path id="breathDiaphragm" d="M194 355 Q380 262 566 355" fill="none" stroke="#c67425" stroke-width="12" stroke-linecap="round"/>
<path d="M389 84 H502 V62 H548" fill="none" stroke="#52677a" stroke-width="2"/><text x="558" y="68">Trakea</text>
<path d="M263 225 H150" stroke="#52677a" stroke-width="2"/><text x="25" y="217">Paru-paru</text><text x="25" y="242" font-size="16">Mengikuti gerak dada</text>
<path d="M550 280 H622" stroke="#52677a" stroke-width="2"/><text x="627" y="275">Tulang</text><text x="627" y="300">rusuk</text>
<path d="M247 356 H126 V381" fill="none" stroke="#52677a" stroke-width="2"/><text x="25" y="410" fill="#9a4d10" font-weight="700">Diafragma</text>
<g id="breathMotion"></g><text id="breathPhaseLabel" x="380" y="466" text-anchor="middle" font-weight="700" font-size="23">Awal inspirasi</text>
</g></svg>