<svg xmlns="http://www.w3.org/2000/svg" id="jarSvg" viewBox="0 0 760 500" role="img" aria-labelledby="jarTitle jarDesc"><title id="jarTitle">Model bell jar dengan karet bawah yang dapat ditarik</title><desc id="jarDesc">Diagram skematis untuk pembelajaran IPA kelas VIII. Label dan panah menunjukkan bagian serta arah proses.</desc><defs><marker id="jarArrow" markerWidth="8" markerHeight="8" refX="7" refY="4" orient="auto"><path d="M0 0 L8 4 L0 8Z" fill="#176f84"/></marker><marker id="jarOrange" markerWidth="8" markerHeight="8" refX="7" refY="4" orient="auto"><path d="M0 0 L8 4 L0 8Z" fill="#aa5409"/></marker></defs><rect width="760" height="500" rx="18" fill="#fff"/><g font-family="system-ui, sans-serif" font-size="19" fill="#25354b">
<path d="M211 357 L216 197 Q226 99 310 87 H450 Q534 99 544 197 L549 357" fill="#edf6fa" fill-opacity=".6" stroke="#6d98ae" stroke-width="5"/>
<rect x="310" y="75" width="140" height="22" rx="8" fill="#8d739c"/><text x="536" y="77">Sumbat kedap udara</text><path d="M454 85 H524" stroke="#52677a" stroke-width="2"/>
<path d="M380 36 V181 M380 181 L316 224 M380 181 L444 224" fill="none" stroke="#659cae" stroke-width="17" stroke-linejoin="round"/><path d="M380 36 V181 M380 181 L316 224 M380 181 L444 224" fill="none" stroke="#dceff4" stroke-width="11" stroke-linejoin="round"/>
<g id="jarBalloons"><path d="M316 218 C281 218 267 266 284 286 C309 315 354 283 346 252 C341 235 329 224 316 218Z" fill="#e99bb5" stroke="#a34b6d" stroke-width="3"/><path d="M444 218 C479 218 493 266 476 286 C451 315 406 283 414 252 C419 235 431 224 444 218Z" fill="#e99bb5" stroke="#a34b6d" stroke-width="3"/></g>
<path d="M383 135 H168" stroke="#52677a" stroke-width="2"/><text x="25" y="125">Pipa bercabang</text><text x="25" y="150" font-size="16">Model trakea &amp; bronkus</text>
<path d="M290 264 H171" stroke="#52677a" stroke-width="2"/><text x="25" y="252">Dua balon</text><text x="25" y="277" font-size="16">Model paru-paru</text>
<path d="M544 193 H583" stroke="#52677a" stroke-width="2"/><text x="591" y="188">Botol / bell jar</text><text x="591" y="213" font-size="16">Ruang tertutup</text>
<path id="jarRubber" d="M211 357 Q380 357 549 357" stroke="#b56d20" stroke-width="9" fill="#fff2d9" fill-opacity=".6"/>
<g id="jarGrip"><path d="M380 357 V378" stroke="#b56d20" stroke-width="8"/><rect x="365" y="375" width="30" height="16" rx="7" fill="#bf7d3c"/></g>
<path d="M240 359 H145 V384" fill="none" stroke="#52677a" stroke-width="2"/><text x="25" y="408" fill="#9a4d10" font-weight="700">Karet bawah</text><text x="25" y="434" font-size="16">Model diafragma</text>
<g id="jarFlow"></g><g id="jarMotion"></g><text id="jarPhaseLabel" x="430" y="472" text-anchor="middle" font-weight="700" font-size="21">Karet siap ditarik</text>
</g></svg>